<?xml version="1.0" encoding="UTF-8"?>
<svg version="1.1" xmlns="http://www.w3.org/2000/svg" aria-label="CSN"  fill="#000"  height="100%" role="img" viewBox="0 0 192 192" width="100%" >
<path d="M2980 4650 l0 -130 -120 0 -120 0 0 -85 0 -85 120 0 120 0 0 -796 0
-796 -77 -80 -78 -80 -5 618 -5 617 -82 -99 -83 -99 0 -594 0 -593 -390 -385
c-214 -212 -390 -390 -389 -397 0 -6 27 -31 60 -55 l60 -44 42 39 c23 22 123
118 222 214 99 97 245 239 325 316 80 77 216 210 303 295 87 85 165 155 173
157 13 3 137 -114 804 -762 85 -83 181 -175 212 -205 l56 -54 58 44 c32 24 59
49 61 55 2 6 -172 184 -387 396 l-390 384 0 595 0 594 -83 98 -82 98 -3 -618
-2 -617 -80 79 -80 80 0 797 0 798 120 0 120 0 0 85 0 85 -120 0 -120 0 0 130
0 130 -80 0 -80 0 0 -130z"/>
<path d="M2415 3502 c-462 -309 -652 -893 -456 -1398 46 -118 41 -114 107 -63
32 24 61 46 65 49 4 3 -6 43 -22 89 -46 129 -62 245 -56 386 10 203 55 338
175 525 37 56 174 201 225 236 28 19 28 20 25 118 l-3 98 -60 -40z"/>
<path d="M3640 3442 c0 -95 1 -100 25 -116 48 -32 155 -139 204 -205 53 -71
124 -202 142 -261 78 -257 78 -461 0 -681 -16 -46 -26 -86 -22 -89 4 -3 33
-25 65 -49 47 -36 59 -42 67 -30 22 34 72 180 91 263 28 121 29 354 4 471 -73
337 -252 590 -548 780 l-28 17 0 -100z"/>
<path d="M2957 2086 c-46 -17 -99 -56 -132 -99 -46 -61 -55 -107 -55 -273 0
-84 -4 -155 -8 -158 -12 -7 -150 55 -232 104 l-70 41 -66 -52 -66 -52 29 -23
c45 -36 172 -109 248 -142 316 -137 713 -116 1023 55 45 25 162 103 162 109 0
1 -30 25 -66 54 l-65 51 -47 -30 c-66 -42 -216 -111 -241 -111 -20 0 -21 4
-21 153 0 116 -4 165 -16 201 -22 65 -103 145 -169 169 -59 20 -155 22 -208 3z
m173 -168 c10 -6 26 -25 36 -42 17 -27 19 -53 19 -196 l0 -165 -125 0 -125 0
-3 145 c-2 82 1 161 7 181 13 42 53 86 84 92 29 6 85 -2 107 -15z"/>
</g>
</svg>
